<svg id="Layer_1" data-name="Layer 1" xmlns="http://www.w3.org/2000/svg" viewBox="0 0 262.75 106.03"><defs><style>.cls-1{fill:#b40204;}.cls-2{fill:#ec7e04;}</style></defs><title>Artboard 1</title><path class="cls-1" d="M9.22,95.51V25.74H62V41.66H30.67V51.79H62.14V67.86H30.75V79.05H63.38c0,4.47.48,8.62-.23,12.55-.28,1.55-3.18,3.71-4.91,3.74C42.11,95.62,26,95.51,9.22,95.51Z"/><path class="cls-2" d="M88.88,51.94c14.37-11.44,21.51-11.29,31.11.24.94-.83,2-1.59,2.81-2.49,6.09-6.44,13.48-7.63,21.52-4.89,7.52,2.55,9.34,9.26,9.68,16,.5,10.14.12,20.32.22,30.48,0,2.55-.9,3.76-3.48,3.56a2.78,2.78,0,0,0-.5,0c-13.65.71-13.59.71-13.69-13,0-5.82-.32-11.64-.71-17.44-.22-3.36-2-5.55-5.65-5.79s-6.54,1.29-6.92,4.94c-.69,6.75-.93,13.57-1,20.37-.15,10.92,0,10.92-11.16,10.89a23.14,23.14,0,0,0-2.5,0c-3.13.31-4-1.27-4-4.16q.18-9.49,0-19a55.5,55.5,0,0,0-.8-7.92c-.51-3.17-2.36-5-5.74-5.14s-5.88,1.26-6.73,4.63a32.76,32.76,0,0,0-1,7.36q-.21,10,0,20c0,2.82-.62,4.15-3.83,4.3-13.77.65-13.77.75-13.77-12.9,0-10.66.12-21.32-.06-32-.07-3.66,1-5.33,4.82-4.88a18.45,18.45,0,0,0,4,0C85.84,44.74,89.58,45.12,88.88,51.94Z"/><path class="cls-2" d="M208.32,49.22a49.87,49.87,0,0,1,.57-6.74c.26-1.08,1.33-2,2-2.94,1.08.87,3,1.73,3.06,2.61,0,2.57-.83,5.13-1.11,7.72-.23,2.08-.81,4.51,0,6.23a32.5,32.5,0,0,1,1.89,22.38C211,93.06,198.35,97.64,186.25,96.4c-15-1.54-23.26-10.52-23.46-24.19-.35-23.85,20.39-36.27,41.52-24.88C205.29,47.86,206.33,48.29,208.32,49.22Zm-10,20.62c-.59-2.64-.54-6-2-8.28s-4.6-5.07-7-5.06-5.65,2.71-7,5.09c-2.92,5.31-2.45,11.19-.32,16.85,1.31,3.46,3.82,5.5,7.53,5.41s6.18-2.36,7.2-5.85C197.44,75.49,197.72,72.84,198.29,69.84Z"/><path class="cls-2" d="M244.46,67.62c-.34,6.47-.47,13-1.08,19.41-.48,5.11-4,8-8.62,7.75-4.39-.23-7.73-3.76-7.91-8.65-.39-10.47-.77-20.95-1-31.42-.12-6.77,2.66-9.41,9.28-9.42,6.88,0,9.17,2.29,9.2,9.33,0,2.17-.08,4.33-.1,6.49s0,4.33,0,6.49Z"/><path class="cls-2" d="M215.59,21.05,243.21,5.31l13.1,28.06c-1.87.14-3.2.58-4.33.28C247.2,32.41,243.37,32,240.9,38c-1.26,3.06-5.35,3.66-8.83,2s-5.79-4.7-4.72-8.35c1.13-3.87-.46-5-3.42-6.15A94.2,94.2,0,0,1,215.59,21.05Z"/><path class="cls-1" d="M190.19,36.63c-.65,2.77-2.76,4.26-5.33,2.43a67,67,0,0,1-9.78-9c-.64-.68-.29-3,.42-4a5.27,5.27,0,0,1,3.75-1.79C182,24.17,190.26,33.6,190.19,36.63Z"/></svg>