<svg id="Layer_1" data-name="Layer 1" xmlns="http://www.w3.org/2000/svg" viewBox="0 0 247.09 91.28"><defs><style>.cls-1{fill:#fff;}</style></defs><path class="cls-1" d="M0,90.2V20.43H52.78V36.35H21.45V46.48H52.92V62.55H21.53V73.74H54.16c0,4.47.48,8.62-.23,12.55C53.65,87.84,50.75,90,49,90,32.89,90.31,16.78,90.2,0,90.2Z"/><path class="cls-1" d="M79.66,46.63c14.37-11.44,21.51-11.29,31.11.24a33.92,33.92,0,0,0,2.81-2.49c6.09-6.44,13.48-7.63,21.52-4.89,7.52,2.55,9.34,9.26,9.68,16,.5,10.14.12,20.32.22,30.48,0,2.55-.9,3.76-3.48,3.56a2.09,2.09,0,0,0-.5,0c-13.65.71-13.59.71-13.69-13,0-5.82-.32-11.64-.71-17.44-.22-3.36-2-5.55-5.65-5.79s-6.54,1.29-6.92,4.94c-.69,6.75-.93,13.57-1,20.37-.15,10.92,0,10.92-11.16,10.89a20.85,20.85,0,0,0-2.5,0c-3.13.31-4-1.27-4-4.16q.18-9.5,0-19a55.35,55.35,0,0,0-.8-7.92c-.51-3.17-2.36-5-5.74-5.14S83,54.54,82.12,57.91a32.69,32.69,0,0,0-1,7.36q-.21,10,0,20c0,2.82-.62,4.15-3.83,4.3-13.77.65-13.77.75-13.77-12.9,0-10.66.12-21.32-.06-32-.07-3.66,1-5.33,4.82-4.88a19.1,19.1,0,0,0,4,0C76.62,39.43,80.36,39.81,79.66,46.63Z"/><path class="cls-1" d="M199.1,43.91a50.65,50.65,0,0,1,.57-6.74c.26-1.08,1.33-2,2-2.94,1.08.87,3,1.73,3.06,2.61,0,2.57-.83,5.13-1.11,7.72-.23,2.08-.81,4.51,0,6.23a32.49,32.49,0,0,1,1.89,22.38C201.78,87.75,189.13,92.33,177,91.09c-15-1.54-23.26-10.52-23.46-24.19C153.22,43.05,174,30.63,195.09,42,196.07,42.55,197.11,43,199.1,43.91Zm-10,20.62c-.59-2.64-.54-6-2-8.28s-4.6-5.07-7-5.06-5.65,2.71-7,5.09c-2.92,5.31-2.45,11.19-.32,16.85,1.31,3.46,3.82,5.5,7.53,5.41s6.18-2.36,7.2-5.85c.71-2.51,1-5.16,1.56-8.16Z"/><path class="cls-1" d="M235.24,62.31c-.34,6.47-.47,13-1.08,19.41-.48,5.11-4,8-8.62,7.75-4.39-.23-7.73-3.76-7.91-8.65-.39-10.47-.77-20.95-1-31.42-.12-6.77,2.66-9.41,9.28-9.42,6.88,0,9.17,2.29,9.2,9.33,0,2.17-.08,4.33-.1,6.49s0,4.33,0,6.49Z"/><path class="cls-1" d="M206.37,15.74,234,0l13.1,28.06c-1.87.14-3.2.58-4.33.28-4.78-1.24-8.61-1.65-11.08,4.35-1.26,3.06-5.35,3.66-8.83,2s-5.79-4.7-4.72-8.35c1.13-3.87-.46-5-3.42-6.15A93.83,93.83,0,0,1,206.37,15.74Z"/><path class="cls-1" d="M181,31.32c-.65,2.77-2.76,4.26-5.33,2.43a66.73,66.73,0,0,1-9.78-9c-.64-.68-.29-3,.42-4A5.26,5.26,0,0,1,170,19C172.78,18.86,181,28.29,181,31.32Z"/></svg>